<svg width="75" height="75" viewBox="0 0 75 75" fill="none" xmlns="http://www.w3.org/2000/svg">
<rect width="75" height="75" rx="37.5" fill="#EADDFF"/>
<path fill-rule="evenodd" clip-rule="evenodd" d="M48.7507 30C48.7507 36.2132 43.7139 41.25 37.5007 41.25C31.2875 41.25 26.2507 36.2132 26.2507 30C26.2507 23.7868 31.2875 18.75 37.5007 18.75C43.7139 18.75 48.7507 23.7868 48.7507 30ZM45.0007 30C45.0007 34.1421 41.6428 37.5 37.5007 37.5C33.3586 37.5 30.0007 34.1421 30.0007 30C30.0007 25.8579 33.3586 22.5 37.5007 22.5C41.6428 22.5 45.0007 25.8579 45.0007 30Z" fill="#534DC9"/>
<path d="M37.5007 46.875C25.3612 46.875 15.0181 54.0533 11.0781 64.1101C12.0379 65.0632 13.049 65.9647 14.1069 66.8101C17.0408 57.5769 26.2445 50.625 37.5007 50.625C48.7569 50.625 57.9607 57.5769 60.8946 66.8101C61.9524 65.9647 62.9635 65.0632 63.9233 64.1101C59.9833 54.0533 49.6402 46.875 37.5007 46.875Z" fill="#534DC9"/>
</svg>
